<?xml version="1.0" encoding="utf-8"?>
<!-- Generator: Adobe Illustrator 24.1.3, SVG Export Plug-In . SVG Version: 6.00 Build 0)  -->
<svg version="1.1" id="Layer_1" xmlns="http://www.w3.org/2000/svg" xmlns:xlink="http://www.w3.org/1999/xlink" x="0px" y="0px"
	 viewBox="0 0 662 172" style="enable-background:new 0 0 662 172;" xml:space="preserve">
<style type="text/css">
	.st0{fill:none;}
	.st1{fill:#DB1F26;stroke:#DB2127;stroke-width:3;stroke-miterlimit:10;}
	.st2{font-family:'IBMPlexSansCond-Bold';}
	.st3{font-size:140px;}
	.st4{fill:none;stroke:#000000;stroke-width:3;stroke-miterlimit:10;}
	.st5{fill:#DB1F26;stroke:#000000;stroke-width:3;stroke-miterlimit:10;}
	.st6{fill:url(#SVGID_1_);stroke:#000000;stroke-width:3;stroke-miterlimit:10;}
</style>
<g>
	<rect x="5" y="32.3" class="st0" width="652.4" height="172"/>
	<text transform="matrix(1 0 0 1 5 135.8965)" class="st1 st2 st3">HERCT  ME</text>
</g>
<g>
	<polyline class="st4" points="453.6,140.4 458.2,167 465.2,167 	"/>
	<polyline class="st4" points="435.6,140.4 431,167 424,167 	"/>
	<path class="st5" d="M424.9,91.4l2.7,49h33.7l2-49C444.6,96.8,424.9,91.4,424.9,91.4z M454.9,120.4c-2.7,4.9-10.6,12.9-11,13.3
		c-0.9-1-8.3-8.7-10.7-13.4c-2.7-5.1-2.4-9.6-2.4-9.6s0.2-6.2,5.2-7.8c4.6-1.5,7.7,4.9,8.2,5.9c0.4-0.8,3.6-7.4,8.3-5.8
		c5,1.7,5.1,7.8,5.1,7.8S457.7,115.4,454.9,120.4z"/>
</g>
<g>
	<path d="M465.3,61.8c1.4-0.4,2.8-0.7,4.2-1l2.1-0.4l2.1-0.3c0.7-0.1,1.4-0.3,2.1-0.5c0.7-0.2,1.4-0.2,2.1,0
		c1.4,0.3,2.8,0.9,4.2,2.3v0.5c-1.4,1.4-2.8,1.9-4.2,2.3c-0.7,0.1-1.4,0.1-2.1,0c-0.7-0.2-1.4-0.4-2.1-0.5l-2.1-0.3l-2.1-0.4
		c-1.4-0.3-2.8-0.6-4.2-1V61.8z"/>
</g>
<g>
	<path d="M444.4,83.8c0.4,1.4,0.7,2.8,1,4.2l0.4,2.1l0.3,2.1c0.1,0.7,0.3,1.4,0.5,2.1c0.2,0.7,0.2,1.4,0,2.1
		c-0.3,1.4-0.9,2.8-2.3,4.2h-0.5c-1.4-1.4-1.9-2.8-2.3-4.2c-0.1-0.7-0.1-1.4,0-2.1c0.2-0.7,0.4-1.4,0.5-2.1l0.3-2.1l0.4-2.1
		c0.3-1.4,0.6-2.8,1-4.2H444.4z"/>
</g>
<g>
	<path d="M442.9,41.4c-0.4-1.4-0.7-2.8-1-4.2l-0.4-2.1l-0.3-2.1c-0.1-0.7-0.3-1.4-0.5-2.1c-0.2-0.7-0.2-1.4,0-2.1
		c0.3-1.4,0.9-2.8,2.3-4.2h0.5c1.4,1.4,1.9,2.8,2.3,4.2c0.1,0.7,0.1,1.4,0,2.1c-0.2,0.7-0.4,1.4-0.5,2.1l-0.3,2.1l-0.4,2.1
		c-0.3,1.4-0.6,2.8-1,4.2H442.9z"/>
</g>
<g>
	<path d="M423,62.3c-1.4,0.4-2.8,0.7-4.2,1l-2.1,0.4l-2.1,0.3c-0.7,0.1-1.4,0.3-2.1,0.5c-0.7,0.2-1.4,0.2-2.1,0
		c-1.4-0.3-2.8-0.9-4.2-2.3v-0.5c1.4-1.4,2.8-1.9,4.2-2.3c0.7-0.1,1.4-0.1,2.1,0c0.7,0.2,1.4,0.4,2.1,0.5l2.1,0.3l2.1,0.4
		c1.4,0.3,2.8,0.6,4.2,1V62.3z"/>
</g>
<g>
	<path d="M462.7,73c1.4,0.4,2.7,0.9,4.1,1.4l2,0.8l1.9,0.8c0.6,0.3,1.3,0.5,2,0.7c0.7,0.2,1.3,0.6,1.8,1.1c1,1,1.9,2.2,2.3,4.1
		l-0.3,0.4c-1.9,0.4-3.4,0.1-4.7-0.3c-0.7-0.2-1.2-0.6-1.7-1.1c-0.5-0.5-1-1.1-1.5-1.5l-1.6-1.4l-1.5-1.5c-1-1-2-2-3-3.1L462.7,73z"
		/>
</g>
<g>
	<path d="M462.4,51.8c1-1.1,2-2.1,3-3.1l1.6-1.5l1.6-1.4c0.5-0.5,1-1,1.5-1.5c0.5-0.5,1.1-0.9,1.8-1.1c1.4-0.5,2.8-0.7,4.7-0.3
		l0.3,0.4c-0.5,1.9-1.3,3.1-2.4,4.1c-0.5,0.5-1.1,0.9-1.8,1.1c-0.7,0.2-1.4,0.4-2,0.7l-1.9,0.8l-2,0.8c-1.3,0.5-2.7,1-4.1,1.4
		L462.4,51.8z"/>
</g>
<g>
	<path d="M425.2,53.1c-1.4-0.4-2.7-0.8-4.1-1.3l-2-0.7l-2-0.8c-0.6-0.3-1.3-0.5-2-0.7c-0.7-0.2-1.3-0.6-1.8-1.1
		c-1-1-1.9-2.2-2.4-4.1l0.3-0.4c1.9-0.5,3.4-0.2,4.7,0.2c0.7,0.2,1.3,0.6,1.8,1.1c0.5,0.5,1,1,1.5,1.5l1.6,1.4l1.6,1.4
		c1,1,2.1,2,3.1,3L425.2,53.1z"/>
</g>
<g>
	<path d="M425.7,73c-1,1.1-2,2.1-3,3.1l-1.5,1.5l-1.6,1.4c-0.5,0.5-1,1-1.5,1.5c-0.5,0.5-1.1,0.9-1.7,1.1c-1.3,0.5-2.8,0.8-4.7,0.3
		l-0.3-0.4c0.4-1.9,1.3-3.1,2.3-4.1c0.5-0.5,1.1-0.9,1.8-1.1c0.7-0.2,1.4-0.4,2-0.7l1.9-0.8l2-0.8c1.3-0.5,2.7-1,4.1-1.4L425.7,73z"
		/>
</g>
<g>
	<path d="M455.4,80.6c1.1,1,2,2,3,3l1.4,1.6l1.4,1.6c0.5,0.5,1,1,1.5,1.5c0.5,0.5,0.9,1.1,1.1,1.8c0.4,1.4,0.7,2.8,0.2,4.7l-0.4,0.3
		c-1.9-0.5-3.1-1.4-4.1-2.4c-0.5-0.5-0.8-1.1-1.1-1.8c-0.2-0.7-0.4-1.4-0.7-2l-0.8-2l-0.7-2c-0.5-1.3-0.9-2.7-1.3-4.1L455.4,80.6z"
		/>
</g>
<g>
	<path d="M432.8,80.5c-0.4,1.4-0.9,2.7-1.3,4.1l-0.7,2l-0.8,2c-0.3,0.6-0.5,1.3-0.7,2c-0.2,0.7-0.6,1.3-1.1,1.8
		c-1,1-2.2,1.9-4.1,2.4l-0.4-0.3c-0.5-1.9-0.2-3.4,0.2-4.7c0.2-0.7,0.6-1.3,1.1-1.8c0.5-0.5,1-1,1.5-1.5l1.4-1.6l1.4-1.6
		c1-1,2-2.1,3-3L432.8,80.5z"/>
</g>
<g>
	<path d="M455.4,44.7c0.4-1.4,0.9-2.7,1.3-4.1l0.7-2l0.8-2c0.3-0.6,0.5-1.3,0.7-2c0.2-0.7,0.6-1.3,1.1-1.8c1-1,2.2-1.9,4.1-2.4
		l0.4,0.3c0.5,1.9,0.2,3.4-0.2,4.7c-0.2,0.7-0.6,1.3-1.1,1.8c-0.5,0.5-1,1-1.5,1.5l-1.4,1.6l-1.4,1.6c-1,1-2,2.1-3,3L455.4,44.7z"/>
</g>
<g>
	<path d="M433,44.6c-1.1-1-2-2-3-3l-1.4-1.6l-1.4-1.6c-0.5-0.5-1-1-1.5-1.5c-0.5-0.5-0.9-1.1-1.1-1.8c-0.4-1.4-0.7-2.8-0.2-4.7
		l0.4-0.3c1.9,0.5,3.1,1.4,4.1,2.4c0.5,0.5,0.8,1.1,1.1,1.8c0.2,0.7,0.4,1.4,0.7,2l0.8,2l0.7,2c0.5,1.3,0.9,2.7,1.3,4.1L433,44.6z"
		/>
</g>
<radialGradient id="SVGID_1_" cx="444.1321" cy="62.5944" r="18.4032" fx="438.0966" fy="57.1771" gradientUnits="userSpaceOnUse">
	<stop  offset="6.703885e-02" style="stop-color:#FEE6D2"/>
	<stop  offset="0.3732" style="stop-color:#FBCE87"/>
	<stop  offset="0.7142" style="stop-color:#F7B521"/>
</radialGradient>
<circle class="st6" cx="444.1" cy="62.6" r="18.4"/>
</svg>
